<?xml version="1.0" encoding="UTF-8"?> <svg xmlns="http://www.w3.org/2000/svg" width="730" height="364" viewBox="0 0 730 364" fill="none"> <path d="M364.091 110.496C364.236 110.278 364.454 110.132 364.6 109.914C361.399 106.638 359.508 104.673 359.362 104.454C346.777 88.4405 327.863 64.2013 300.511 43.2376C290.618 35.6674 280.433 29.1163 269.958 23.657L220.418 59.9794L224.347 111.588C246.971 123.453 264.866 144.344 281.452 165.526C282.689 167.127 289.09 173.824 298.111 183.214L364.091 110.496Z" fill="#80298F"></path> <path d="M460.042 207.526C457.569 204.832 447.239 194.278 434.072 180.812L367.073 253.893C377.767 264.812 385.623 272.891 387.515 274.93C395.153 283.228 403.81 292.472 413.63 301.789L431.453 245.231L482.666 230.746C475.391 223.903 467.971 216.115 460.042 207.526Z" fill="#80298F"></path> <path d="M470.444 144.052C473.282 141.505 476.264 138.884 479.247 136.409C515.474 105.983 537.297 101.47 547.118 101.47C554.975 101.47 562.249 102.416 569.087 104.163L622.046 77.5218L629.248 21.4732C604.296 9.026 576.362 2.47485 547.045 2.47485C505.799 2.47485 461.57 21.9827 415.667 60.5617C410.43 64.9291 405.337 69.4421 400.463 73.9551L455.823 91.5704L470.444 144.052Z" fill="#D91965"></path> <path d="M130.723 238.607C129.123 237.079 127.668 235.623 126.431 234.313C111.737 218.517 102.571 197.481 102.571 179.356C102.571 165.307 107.227 144.78 120.757 128.33L65.2526 127.238L34.4085 78.2498C26.4793 89.8962 20.0049 102.562 14.9855 116.101C7.41997 136.482 3.63721 157.737 3.63721 179.356C3.63721 222.739 21.969 267.432 53.977 301.789L54.0498 301.862L110.5 289.488L130.723 238.607Z" fill="#80298F"></path> <path d="M677.769 57.5772C665.62 44.8389 651.872 34.1387 636.886 25.6222L629.83 83.345L580.217 107.948C610.479 120.687 627.793 150.385 627.793 179.356C627.793 201.557 617.899 224.704 600.295 240.645L607.06 297.131L656.6 322.607C664.384 316.566 671.658 309.796 678.496 302.372C709.195 268.815 726.872 223.976 726.872 179.428C726.727 134.735 708.904 90.3329 677.769 57.5772Z" fill="#D91965"></path> <path d="M128.468 120.323C140.98 109.258 158.876 101.47 184.046 101.47C195.03 101.47 205.069 103.508 214.38 107.002L211.689 55.6119L260.355 18.9255C236.204 8.00693 210.67 2.47485 184.046 2.47485C156.475 2.47485 130.65 7.64298 107.299 17.7609C85.1119 27.442 65.6888 41.345 49.4666 59.1786C46.0476 62.9637 42.774 66.8944 39.646 70.9707L70.1263 118.867L128.468 120.323Z" fill="#80298F"></path> <path d="M592.584 246.76C580.144 255.495 564.795 260.808 547.045 260.808C524.567 260.808 507.399 252.073 490.013 237.224L438.073 252.219L420.177 307.758C428.106 314.819 436.69 321.807 446.147 328.212C477.064 349.176 511.036 359.803 547.045 359.803C584.436 359.803 619.645 348.666 649.18 327.921L598.913 302.444L592.584 246.76Z" fill="#D91965"></path> <path d="M231.257 241.009C204.851 258.625 189.938 260.881 184.046 260.881C163.822 260.881 148.037 252.583 137.27 244.285L116.683 297.131L60.9604 308.996C94.8598 341.97 138.216 359.949 184.046 359.949C210.525 359.949 238.386 351.578 268.285 334.472L275.05 279.006L231.257 241.009Z" fill="#80298F"></path> <g filter="url(#filter0_d_3317_1038)"> <path d="M463.534 150.385L448.621 98.1944L393.553 80.288C382.568 90.7698 372.675 101.106 364.091 110.496L297.165 184.306C297.165 184.306 297.165 184.306 297.238 184.378C285.307 196.534 271.195 210.073 256.209 222.375C249.298 228.053 242.897 232.93 237.004 237.079L238.75 236.715L284.216 275.73L277.378 329.086C290.836 320.715 304.658 310.67 319.061 298.878C333.683 286.867 347.359 274.129 359.362 262.337L434.217 180.739C442.656 171.276 452.622 160.721 463.534 150.385Z" fill="#D91965"></path> </g> <path d="M334.556 227.907L331.21 231.183L322.553 228.053L320.443 230.091L326.19 236.06L323.281 238.898L308.877 223.976L314.697 218.371C316.151 216.916 317.752 216.261 319.498 216.261C321.244 216.333 322.699 216.988 323.935 218.226C324.881 219.245 325.463 220.264 325.536 221.501C325.681 222.666 325.463 223.758 324.954 224.777L334.556 227.907ZM321.898 222.884C321.971 222.157 321.68 221.501 321.098 220.919C320.516 220.337 319.862 220.046 319.134 220.046C318.407 220.046 317.679 220.337 317.097 220.992L314.333 223.612L318.116 227.543L320.88 224.923C321.462 224.34 321.826 223.685 321.898 222.884Z" fill="white"></path> <path d="M346.85 216.115L337.03 225.578L322.626 210.656L332.447 201.193L334.92 203.813L328.009 210.51L331.355 214.004L337.248 208.326L339.721 210.947L333.829 216.625L337.321 220.264L344.231 213.567L346.85 216.115Z" fill="white"></path> <path d="M359.362 204.032L349.687 213.349L335.284 198.427L338.194 195.588L350.051 207.89L356.816 201.339L359.362 204.032Z" fill="white"></path> <path d="M371.584 192.24L361.763 201.702L347.359 186.78L357.18 177.318L359.653 179.938L352.743 186.635L356.089 190.129L361.981 184.451L364.455 187.072L358.562 192.749L362.054 196.389L368.965 189.692L371.584 192.24Z" fill="white"></path> <path d="M385.914 178.409L382.859 181.321L379.44 179.501L374.13 184.597L375.803 188.091L372.748 191.002L363.8 170.839L366.055 168.656L385.914 178.409ZM376.312 177.827L369.256 174.188L372.602 181.467L376.312 177.827Z" fill="white"></path> <path d="M393.189 162.905C394.571 164.288 395.08 165.889 394.862 167.709C394.571 169.529 393.625 171.203 392.025 172.732C390.861 173.896 389.697 174.697 388.533 175.279C387.369 175.789 386.132 176.08 384.677 176.007L384.75 172.295C386.423 172.295 388.024 171.567 389.551 170.111C390.424 169.311 390.933 168.51 391.079 167.709C391.224 166.981 391.006 166.253 390.424 165.671C389.915 165.162 389.406 164.87 388.751 164.87C388.242 164.87 387.66 165.162 386.933 165.671L384.896 167.127C383.441 168.146 382.131 168.656 380.822 168.656C379.44 168.656 378.13 168 376.894 166.763C375.584 165.38 375.002 163.851 375.148 162.104C375.293 160.357 376.166 158.756 377.767 157.227C379.803 155.262 381.913 154.316 384.241 154.316L384.168 157.883C382.786 157.883 381.477 158.538 380.094 159.775C379.367 160.503 378.931 161.231 378.931 161.959C378.931 162.687 379.149 163.342 379.658 163.851C380.094 164.288 380.604 164.506 381.113 164.506C381.695 164.506 382.35 164.215 383.004 163.779L385.041 162.323C386.496 161.304 387.805 160.721 389.042 160.721C390.424 160.867 391.879 161.522 393.189 162.905Z" fill="white"></path> <path d="M409.993 155.262L400.173 164.725L385.769 149.803L395.59 140.34L398.063 142.961L391.152 149.657L394.498 153.151L400.391 147.474L402.864 150.094L396.972 155.772L400.464 159.411L407.374 152.714L409.993 155.262Z" fill="white"></path> <path d="M276.651 82.3988C276.578 84.1458 275.923 85.6744 274.614 86.9118C273.304 88.1493 271.777 88.8044 270.031 88.8044C268.285 88.8044 266.685 88.0037 265.23 86.4751L262.465 83.6363L256.864 89.0228L254.027 86.1111L268.94 71.6986L274.541 77.5218C275.923 79.0504 276.651 80.6518 276.651 82.3988ZM269.74 84.8737C270.467 84.8737 271.195 84.6553 271.777 84.073C272.359 83.4907 272.722 82.8356 272.722 82.0349C272.722 81.307 272.431 80.5791 271.777 79.9239L269.158 77.1579L265.084 81.0886L267.703 83.7818C268.285 84.5097 269.012 84.8009 269.74 84.8737Z" fill="white"></path> <path d="M275.996 108.967L266.685 99.2862L281.597 84.8737L284.434 87.7853L272.068 99.7229L278.615 106.492L275.996 108.967Z" fill="white"></path> <path d="M289.381 122.87L286.472 119.813L288.29 116.392L283.198 111.078L279.706 112.752L276.796 109.695L296.947 100.742L299.129 102.999L289.381 122.87ZM289.963 113.262L293.601 106.201L286.326 109.55L289.963 113.262Z" fill="white"></path> <path d="M302.184 136.191L299.711 133.571L303.203 118.867L294.037 127.674L291.2 124.763L306.113 110.35L308.586 112.971L305.167 127.674L314.333 118.867L317.17 121.778L302.184 136.191Z" fill="white"></path> <path d="M494.232 57.4317C494.887 58.2324 495.687 59.5427 496.633 61.3624C497.651 63.1822 498.306 64.4924 498.669 65.5115C499.033 66.4578 499.179 67.4768 499.033 68.4231C498.742 70.898 497.36 72.7905 495.032 74.1008L488.485 77.7403L478.519 59.6155L485.066 55.9759C487.467 54.6657 489.795 54.5201 491.977 55.612C492.85 55.9759 493.577 56.5583 494.232 57.4317ZM494.741 66.6033C494.45 65.8754 493.941 64.7836 493.068 63.255C492.195 61.7264 491.613 60.6345 491.177 60.0522C490.74 59.4699 490.231 59.0331 489.722 58.8876C488.703 58.4508 487.612 58.5964 486.448 59.2515L483.757 60.7073L490.304 72.5722L492.995 71.1164C494.159 70.4612 494.814 69.5878 495.032 68.5687C495.105 67.9136 495.032 67.2585 494.741 66.6033Z" fill="white"></path> <path d="M517.438 63.7644L504.78 68.8598L496.997 49.6431L509.654 44.5477L511.036 47.8961L502.161 51.5356L503.98 56.0486L511.546 52.9914L512.928 56.3398L505.362 59.397L507.254 64.0556L516.129 60.4161L517.438 63.7644Z" fill="white"></path> <path d="M529.441 41.709C530.896 42.6552 531.769 44.0383 532.132 45.858C532.496 47.6778 532.205 49.2792 531.259 50.735C530.314 52.1908 528.786 53.1371 526.749 53.5738L522.821 54.3745L524.349 62.0175L520.348 62.8182L516.274 42.5097L524.13 40.9083C526.24 40.4715 527.986 40.7627 529.441 41.709ZM527.768 48.8424C528.204 48.2601 528.35 47.5322 528.131 46.6587C527.986 45.858 527.549 45.2029 526.895 44.7662C526.24 44.3294 525.513 44.2566 524.567 44.4022L520.857 45.1301L521.948 50.6622L525.658 49.9343C526.676 49.8615 527.331 49.4247 527.768 48.8424Z" fill="white"></path> <path d="M550.901 59.9794L537.443 60.0522L537.297 39.3069H541.371L541.517 56.4126L550.901 56.3399V59.9794Z" fill="white"></path> <path d="M568.505 46.2219C568.578 47.3866 568.505 49.1336 568.287 51.4628C568.068 53.7921 567.705 55.4663 567.341 56.631C566.977 57.7228 566.25 58.7419 565.231 59.5426C563.631 60.8528 561.74 61.3624 559.484 61.144C557.229 60.9256 555.483 59.9793 554.174 58.3779C553.301 57.3589 552.865 56.1942 552.792 55.1024C552.719 54.0105 552.792 52.1908 553.01 49.8615C553.301 47.5322 553.592 45.7852 553.883 44.6933C554.247 43.6015 554.902 42.5824 555.993 41.7817C557.593 40.4715 559.485 39.962 561.74 40.2531C563.922 40.4715 565.741 41.4178 566.977 43.0192C567.923 43.8926 568.432 45.0573 568.505 46.2219ZM564.286 50.9533C564.504 49.0608 564.577 47.6777 564.504 46.9498C564.431 46.2219 564.213 45.5668 563.922 45.0573C563.34 44.2566 562.54 43.8198 561.449 43.6743C560.357 43.5287 559.484 43.8198 558.757 44.475C558.321 44.9117 558.03 45.4212 557.811 46.1491C557.593 46.8771 557.375 48.1873 557.157 50.1526C556.938 52.0452 556.866 53.4282 556.938 54.1561C557.011 54.884 557.157 55.5391 557.52 56.0487C558.102 56.8493 558.975 57.3589 559.994 57.4317C561.085 57.5773 561.958 57.2861 562.685 56.5582C563.122 56.1214 563.486 55.5391 563.704 54.8112C563.849 54.1561 564.067 52.8459 564.286 50.9533Z" fill="white"></path> <path d="M588.946 45.494L580.071 55.903L578.107 64.2012L574.179 63.2549L576.143 54.9568L572.942 41.6361L577.234 42.6552L579.053 51.6812L584.727 44.4749L588.946 45.494Z" fill="white"></path> <path d="M118.939 72.0625C119.666 74.1007 119.666 75.9204 119.011 77.5946C118.357 79.2688 117.193 80.5062 115.447 81.5253C113.483 82.6171 111.519 82.8355 109.555 82.326C108.245 81.962 107.227 81.3069 106.499 80.4334C105.772 79.5599 104.826 78.1041 103.662 75.9932C102.498 73.9551 101.771 72.3537 101.407 71.2618C101.043 70.17 101.043 68.9325 101.407 67.6951C101.989 65.7297 103.298 64.1284 105.19 63.1093C106.936 62.163 108.682 61.7991 110.355 62.163C112.101 62.4542 113.628 63.4732 115.01 65.1474L111.373 67.1856C109.991 65.7298 108.536 65.3658 106.936 66.3121C105.99 66.8216 105.408 67.5495 105.19 68.4958C105.044 69.0781 105.117 69.7332 105.408 70.4611C105.626 71.189 106.208 72.4265 107.154 74.1007C108.1 75.7748 108.827 76.9395 109.264 77.5218C109.773 78.1041 110.282 78.5409 110.864 78.7592C111.737 79.1232 112.683 78.9776 113.628 78.4681C115.229 77.5946 115.811 76.1388 115.229 74.1734L118.939 72.0625Z" fill="white"></path> <path d="M131.887 56.7766C132.542 57.7229 133.269 59.3242 134.142 61.508C135.015 63.6917 135.524 65.3659 135.743 66.4577C135.961 67.6224 135.815 68.787 135.233 70.0244C134.433 71.917 132.978 73.3 130.869 74.1007C128.759 74.9014 126.795 74.9742 124.904 74.1007C123.667 73.5912 122.721 72.7905 122.139 71.8442C121.485 70.8979 120.757 69.2965 119.884 67.1128C119.011 64.9291 118.502 63.2549 118.284 62.1631C118.066 60.9984 118.211 59.8338 118.793 58.5963C119.593 56.7038 121.048 55.3208 123.158 54.5201C125.267 53.7194 127.232 53.7194 129.123 54.5201C130.36 55.1024 131.233 55.8303 131.887 56.7766ZM130.36 63.0366C129.632 61.2168 129.123 60.0522 128.686 59.397C128.25 58.7419 127.813 58.3052 127.304 58.014C126.431 57.5773 125.486 57.5045 124.467 57.9412C123.449 58.3052 122.794 59.0331 122.43 59.9066C122.212 60.4889 122.212 61.144 122.358 61.8719C122.503 62.5998 122.94 63.91 123.667 65.657C124.394 67.4768 124.904 68.6414 125.34 69.2965C125.777 69.9517 126.213 70.3884 126.722 70.6796C127.668 71.1163 128.614 71.1891 129.559 70.7524C130.578 70.3884 131.233 69.6605 131.523 68.7142C131.742 68.1319 131.742 67.4768 131.596 66.7489C131.523 66.021 131.087 64.7835 130.36 63.0366Z" fill="white"></path> <path d="M152.256 52.118C152.62 53.0643 153.056 54.5201 153.565 56.5582C154.075 58.5236 154.293 60.0522 154.438 61.0712C154.511 62.0903 154.366 63.0366 154.002 63.9829C153.056 66.3122 151.238 67.768 148.619 68.3503L141.344 70.0973L136.543 49.9343L143.818 48.1873C146.436 47.5322 148.691 48.0417 150.583 49.6431C151.31 50.371 151.819 51.1717 152.256 52.118ZM150.292 61.144C150.219 60.4161 150.001 59.1787 149.564 57.5045C149.128 55.8303 148.837 54.5929 148.546 53.9378C148.255 53.2099 147.891 52.7003 147.455 52.4092C146.582 51.7541 145.491 51.5357 144.181 51.8996L141.199 52.6275L144.327 65.8026L147.309 65.0747C148.619 64.7836 149.492 64.1284 149.928 63.1094C150.292 62.527 150.365 61.8719 150.292 61.144Z" fill="white"></path> <path d="M172.916 64.7835L159.312 66.1665L157.275 45.5668L170.879 44.2566L171.242 47.8233L161.713 48.7696L162.222 53.5738L170.37 52.7731L170.733 56.3398L162.586 57.1405L163.095 62.163L172.625 61.2168L172.916 64.7835Z" fill="white"></path> <path d="M469.353 295.093L466.225 292.545L473.791 283.155L465.789 286.795L463.679 285.048L465.498 276.458L457.932 285.848L454.804 283.301L467.753 267.141L470.881 269.616L468.044 281.699L479.247 276.386L482.375 278.86L469.353 295.093Z" fill="white"></path> <path d="M494.596 293.71C494.159 294.802 493.287 296.257 491.977 298.223C490.668 300.188 489.577 301.498 488.776 302.299C487.976 303.1 486.885 303.682 485.576 303.9C483.539 304.264 481.647 303.828 479.756 302.59C477.865 301.353 476.773 299.678 476.41 297.64C476.191 296.33 476.264 295.093 476.701 294.074C477.137 292.982 478.01 291.526 479.392 289.561C480.702 287.595 481.793 286.212 482.593 285.412C483.393 284.611 484.484 284.101 485.794 283.81C487.831 283.446 489.722 283.883 491.613 285.12C493.432 286.358 494.596 288.032 494.96 290.07C495.178 291.453 495.032 292.691 494.596 293.71ZM488.631 295.966C489.722 294.365 490.377 293.2 490.74 292.545C491.031 291.817 491.177 291.162 491.104 290.58C490.959 289.633 490.449 288.833 489.577 288.178C488.704 287.595 487.758 287.377 486.812 287.595C486.23 287.741 485.721 288.105 485.139 288.614C484.63 289.197 483.757 290.216 482.738 291.817C481.72 293.419 480.993 294.583 480.629 295.238C480.338 295.966 480.192 296.549 480.265 297.131C480.411 298.15 480.92 298.951 481.793 299.533C482.666 300.115 483.611 300.334 484.557 300.042C485.139 299.897 485.721 299.533 486.23 299.023C486.739 298.587 487.54 297.568 488.631 295.966Z" fill="white"></path> <path d="M505.58 316.857L502.307 315.328L500.415 300.334L494.96 311.834L491.322 310.087L500.27 291.38L503.543 292.909L505.508 307.904L510.964 296.476L514.601 298.223L505.58 316.857Z" fill="white"></path> <path d="M517.656 319.477L513.655 318.75L517.293 298.368L521.294 299.096L517.656 319.477Z" fill="white"></path> <path d="M538.388 304.919L533.005 304.337L531.114 321.37L527.113 320.933L529.004 303.9L523.621 303.318L523.985 299.751L538.752 301.353L538.388 304.919Z" fill="white"></path> <path d="M554.829 306.521C555.048 307.685 555.193 309.432 555.193 311.762C555.193 314.091 555.12 315.838 554.902 317.003C554.684 318.167 554.102 319.186 553.156 320.133C551.701 321.588 549.883 322.316 547.627 322.316C545.372 322.316 543.554 321.588 542.026 320.133C541.08 319.186 540.498 318.167 540.28 317.003C540.062 315.838 539.917 314.091 539.917 311.762C539.917 309.432 539.989 307.685 540.207 306.521C540.426 305.356 541.008 304.337 541.953 303.391C543.408 301.935 545.227 301.207 547.482 301.207C549.737 301.207 551.556 301.935 553.011 303.391C553.956 304.337 554.611 305.356 554.829 306.521ZM551.119 311.762C551.119 309.869 551.046 308.486 550.901 307.758C550.756 307.03 550.465 306.375 550.101 305.938C549.446 305.211 548.573 304.847 547.482 304.847C546.391 304.847 545.518 305.211 544.863 305.938C544.499 306.375 544.208 306.957 544.063 307.758C543.917 308.486 543.845 309.869 543.845 311.762C543.845 313.654 543.917 315.037 544.063 315.765C544.208 316.493 544.499 317.075 544.863 317.585C545.591 318.313 546.464 318.677 547.482 318.677C548.573 318.677 549.446 318.313 550.101 317.512C550.465 317.075 550.756 316.42 550.901 315.692C551.046 314.964 551.119 313.654 551.119 311.762Z" fill="white"></path> <path d="M576.871 319.114L572.215 319.841L566.905 312.344L564.068 312.781L565.377 320.933L561.376 321.588L558.03 301.134L566.032 299.824C568.069 299.46 569.742 299.824 571.197 300.843C572.579 301.862 573.452 303.245 573.743 304.992C573.961 306.375 573.816 307.54 573.234 308.559C572.652 309.578 571.924 310.379 570.906 310.961L576.871 319.114ZM569.233 307.758C569.669 307.176 569.815 306.448 569.742 305.647C569.596 304.847 569.233 304.264 568.651 303.828C568.069 303.391 567.269 303.245 566.468 303.391L562.686 303.973L563.558 309.36L567.341 308.777C568.069 308.705 568.723 308.341 569.233 307.758Z" fill="white"></path> <path d="M174.662 305.065L169.351 303.973L165.932 320.788L162.004 319.987L165.423 303.172L160.113 302.081L160.84 298.514L175.389 301.498L174.662 305.065Z" fill="white"></path> <path d="M190.229 322.899L176.626 322.389L177.353 301.644L190.957 302.153L190.811 305.793L181.209 305.429L181.063 310.306L189.211 310.597L189.065 314.237L180.918 313.945L180.772 318.968L190.375 319.332L190.229 322.899Z" fill="white"></path> <path d="M208.779 314.673C209.07 316.639 208.488 318.24 207.252 319.55C205.942 320.86 204.196 321.661 202.014 321.952C200.414 322.171 198.959 322.171 197.722 321.88C196.485 321.588 195.321 321.079 194.157 320.205L196.413 317.294C197.722 318.313 199.468 318.677 201.578 318.386C202.741 318.24 203.614 317.876 204.196 317.367C204.778 316.857 204.997 316.202 204.851 315.328C204.778 314.601 204.487 314.091 203.978 313.727C203.542 313.436 202.887 313.29 202.014 313.29L199.541 313.217C197.795 313.217 196.34 312.781 195.321 312.053C194.23 311.252 193.576 309.942 193.285 308.195C193.066 306.302 193.503 304.774 194.594 303.391C195.758 302.081 197.431 301.28 199.613 300.989C202.378 300.625 204.706 301.134 206.597 302.517L204.415 305.356C203.323 304.555 201.868 304.264 200.05 304.483C199.031 304.628 198.304 304.992 197.795 305.502C197.286 306.084 197.14 306.739 197.213 307.467C197.286 308.049 197.577 308.559 198.013 308.85C198.522 309.214 199.177 309.36 199.977 309.36L202.45 309.432C204.269 309.432 205.579 309.796 206.597 310.524C207.834 311.398 208.561 312.781 208.779 314.673Z" fill="white"></path> <path d="M223.256 299.314L218.018 300.843L222.747 317.294L218.891 318.386L214.163 301.935L208.925 303.464L207.907 299.97L222.165 295.893L223.256 299.314Z" fill="white"></path> <path d="M671.585 141.141C670.567 141.723 668.966 142.305 666.711 142.961C664.456 143.616 662.783 144.052 661.619 144.125C660.455 144.198 659.291 143.98 658.127 143.324C656.309 142.378 655.072 140.777 654.417 138.666C653.763 136.482 653.908 134.517 654.854 132.697C655.509 131.532 656.309 130.659 657.327 130.077C658.346 129.494 659.946 128.912 662.201 128.257C664.456 127.602 666.129 127.165 667.293 127.019C668.457 126.874 669.621 127.165 670.785 127.82C672.604 128.766 673.84 130.368 674.495 132.479C675.15 134.59 675.004 136.555 673.986 138.375C673.404 139.758 672.604 140.631 671.585 141.141ZM665.547 139.103C667.366 138.52 668.675 138.084 669.33 137.72C669.985 137.356 670.494 136.919 670.858 136.409C671.367 135.609 671.44 134.662 671.149 133.643C670.858 132.624 670.203 131.896 669.33 131.46C668.821 131.241 668.166 131.168 667.366 131.241C666.639 131.314 665.329 131.678 663.438 132.188C661.619 132.77 660.31 133.207 659.655 133.571C659 133.934 658.491 134.371 658.2 134.881C657.691 135.754 657.545 136.701 657.909 137.72C658.2 138.739 658.855 139.467 659.728 139.831C660.31 140.049 660.964 140.122 661.692 140.049C662.419 139.976 663.729 139.685 665.547 139.103Z" fill="white"></path> <path d="M678.423 159.047C677.405 160.503 676.023 161.376 674.204 161.668C672.385 161.959 670.785 161.668 669.33 160.649C667.875 159.629 667.002 158.101 666.639 156.063L665.911 152.132L658.2 153.515L657.473 149.512L677.841 145.872L679.224 153.806C679.733 155.844 679.369 157.591 678.423 159.047ZM671.294 157.227C671.876 157.664 672.604 157.81 673.477 157.664C674.35 157.519 674.932 157.155 675.368 156.499C675.805 155.844 675.95 155.116 675.732 154.243L675.077 150.531L669.476 151.55L670.13 155.262C670.349 156.136 670.712 156.791 671.294 157.227Z" fill="white"></path> <path d="M661.328 180.666L660.382 167.054L681.042 165.598L681.988 179.21L678.423 179.429L677.768 169.82L672.894 170.184L673.476 178.337L669.912 178.555L669.33 170.403L664.311 170.767L664.965 180.375L661.328 180.666Z" fill="white"></path> <path d="M660.746 199.737L660.964 195.079L669.403 191.439L669.548 188.527L661.328 188.163L661.546 184.087L682.206 185.033L681.842 193.113C681.769 195.151 681.042 196.753 679.805 197.917C678.496 199.082 676.968 199.592 675.222 199.519C673.84 199.446 672.676 199.009 671.803 198.281C670.93 197.553 670.276 196.607 669.985 195.515L660.746 199.737ZM673.404 194.642C673.913 195.224 674.495 195.515 675.368 195.515C676.168 195.588 676.823 195.297 677.405 194.787C677.914 194.278 678.205 193.55 678.278 192.676L678.423 188.891L672.967 188.673L672.822 192.458C672.676 193.332 672.895 194.059 673.404 194.642Z" fill="white"></path> <path d="M656.963 217.935L657.836 213.786L661.692 213.349L663.22 206.143L659.873 204.177L660.746 200.028L679.442 211.748L678.787 214.878L656.963 217.935ZM665.184 213.058L673.113 212.184L666.275 208.035L665.184 213.058Z" fill="white"></path> <path d="M668.312 236.132L670.131 231.037L654.054 225.214L655.436 221.429L671.513 227.252L673.331 222.157L676.75 223.394L671.658 237.37L668.312 236.132Z" fill="white"></path> <path d="M644.597 244.649L651.071 232.638L669.33 242.465L662.856 254.476L659.655 252.729L664.238 244.285L659.946 241.956L656.09 249.162L652.89 247.415L656.745 240.209L652.308 237.807L647.725 246.25L644.597 244.649Z" fill="white"></path> <path d="M71.945 232.42C73.6182 231.619 75.2186 231.474 76.6735 232.129C78.1284 232.711 79.2196 233.876 80.0925 235.623L83.8025 243.484L65.107 252.437L61.5424 244.94C60.6695 243.12 60.4513 241.519 60.9605 239.99C61.397 238.534 62.4154 237.37 64.0885 236.642C65.0342 236.205 65.9799 236.06 66.8529 236.205C67.7258 236.351 68.4533 236.642 69.0352 237.079C68.9625 234.895 69.9082 233.366 71.945 232.42ZM67.7258 239.99C67.1438 239.772 66.4891 239.772 65.8344 240.136C65.1797 240.427 64.7432 240.937 64.5978 241.519C64.3795 242.101 64.525 242.829 64.8887 243.557L66.5619 247.124L70.8539 245.086L69.1807 241.519C68.817 240.718 68.3805 240.209 67.7258 239.99ZM75.4368 235.987C74.7821 235.768 74.1274 235.841 73.4727 236.132C72.818 236.424 72.3815 236.933 72.1633 237.515C71.945 238.17 72.0178 238.826 72.3815 239.626L74.2001 243.411L78.7831 241.228L76.9645 237.443C76.6007 236.715 76.0915 236.205 75.4368 235.987Z" fill="white"></path> <path d="M64.3798 214.732C66.4167 214.004 68.3081 214.15 70.054 215.096C71.7999 216.042 73.0365 217.498 73.764 219.609C74.4914 221.647 74.4187 223.612 73.6185 225.432C72.8183 227.252 71.4361 228.489 69.3993 229.217L56.5233 233.658L55.2139 229.8L67.9444 225.359C69.0355 224.995 69.8357 224.34 70.2722 223.54C70.7087 222.739 70.7087 221.793 70.345 220.701C69.9812 219.682 69.3993 218.954 68.5263 218.517C67.6534 218.153 66.7077 218.153 65.5438 218.517L52.8133 222.957L51.5039 219.172L64.3798 214.732Z" fill="white"></path> <path d="M69.1807 204.469L70.1264 208.399L49.976 213.349L49.0303 209.418L69.1807 204.469Z" fill="white"></path> <path d="M66.4167 186.999L68.1626 200.319L47.6484 203.013L47.1392 199.009L64.0888 196.825L62.8522 187.508L66.4167 186.999Z" fill="white"></path> <path d="M51.8674 169.165C52.8859 169.019 54.4135 169.019 56.4504 169.092C58.4873 169.165 60.0149 169.238 61.0333 169.456C62.0518 169.602 62.9247 170.039 63.7249 170.621C65.689 172.149 66.6347 174.26 66.562 176.954L66.3438 184.451L45.6113 183.796L45.8296 176.299C45.9023 173.605 46.9935 171.494 49.0304 170.111C49.9033 169.602 50.849 169.311 51.8674 169.165ZM60.0149 173.387C59.2875 173.241 58.0508 173.169 56.3049 173.096C54.559 173.023 53.3223 173.023 52.5949 173.096C51.8674 173.169 51.2855 173.387 50.849 173.751C49.9761 174.406 49.5396 175.425 49.4668 176.735L49.3941 179.792L62.9247 180.229L62.9975 177.172C63.0702 175.862 62.6337 174.843 61.8335 174.115C61.3243 173.751 60.7424 173.532 60.0149 173.387Z" fill="white"></path> <path d="M198.986 172.304H189.424C189.151 170.736 188.648 169.347 187.915 168.136C187.182 166.909 186.27 165.869 185.179 165.017C184.088 164.165 182.844 163.526 181.446 163.099C180.066 162.656 178.574 162.435 176.972 162.435C174.125 162.435 171.602 163.151 169.404 164.582C167.205 165.997 165.483 168.077 164.239 170.821C162.995 173.548 162.372 176.881 162.372 180.818C162.372 184.824 162.995 188.199 164.239 190.943C165.5 193.67 167.222 195.733 169.404 197.131C171.602 198.511 174.117 199.202 176.946 199.202C178.514 199.202 179.98 198.997 181.344 198.588C182.725 198.162 183.96 197.54 185.051 196.722C186.159 195.903 187.088 194.898 187.838 193.705C188.605 192.511 189.134 191.148 189.424 189.614L198.986 189.665C198.628 192.153 197.852 194.489 196.659 196.67C195.483 198.852 193.941 200.778 192.031 202.449C190.122 204.102 187.889 205.398 185.333 206.335C182.776 207.256 179.938 207.716 176.818 207.716C172.216 207.716 168.108 206.651 164.495 204.52C160.881 202.389 158.034 199.312 155.955 195.29C153.875 191.267 152.835 186.443 152.835 180.818C152.835 175.176 153.884 170.352 155.98 166.347C158.077 162.324 160.932 159.247 164.546 157.116C168.159 154.986 172.25 153.92 176.818 153.92C179.733 153.92 182.443 154.33 184.949 155.148C187.455 155.966 189.688 157.168 191.648 158.753C193.608 160.321 195.219 162.247 196.48 164.531C197.759 166.798 198.594 169.389 198.986 172.304Z" fill="black"></path> <path d="M214.659 154.636V207H205.173V154.636H214.659Z" fill="black"></path> <path d="M544.396 172.304H534.834C534.561 170.736 534.058 169.347 533.325 168.136C532.592 166.909 531.68 165.869 530.589 165.017C529.498 164.165 528.254 163.526 526.856 163.099C525.476 162.656 523.984 162.435 522.382 162.435C519.535 162.435 517.013 163.151 514.814 164.582C512.615 165.997 510.893 168.077 509.649 170.821C508.405 173.548 507.783 176.881 507.783 180.818C507.783 184.824 508.405 188.199 509.649 190.943C510.91 193.67 512.632 195.733 514.814 197.131C517.013 198.511 519.527 199.202 522.356 199.202C523.925 199.202 525.39 198.997 526.754 198.588C528.135 198.162 529.371 197.54 530.462 196.722C531.569 195.903 532.498 194.898 533.248 193.705C534.015 192.511 534.544 191.148 534.834 189.614L544.396 189.665C544.038 192.153 543.263 194.489 542.069 196.67C540.893 198.852 539.351 200.778 537.442 202.449C535.533 204.102 533.3 205.398 530.743 206.335C528.186 207.256 525.348 207.716 522.229 207.716C517.626 207.716 513.518 206.651 509.905 204.52C506.291 202.389 503.444 199.312 501.365 195.29C499.285 191.267 498.246 186.443 498.246 180.818C498.246 175.176 499.294 170.352 501.391 166.347C503.487 162.324 506.342 159.247 509.956 157.116C513.569 154.986 517.66 153.92 522.229 153.92C525.143 153.92 527.854 154.33 530.359 155.148C532.865 155.966 535.098 157.168 537.058 158.753C539.018 160.321 540.629 162.247 541.891 164.531C543.169 166.798 544.004 169.389 544.396 172.304Z" fill="black"></path> <path d="M568.327 207H550.583V154.636H568.685C573.884 154.636 578.35 155.685 582.083 157.781C585.833 159.861 588.714 162.852 590.725 166.756C592.736 170.659 593.742 175.33 593.742 180.767C593.742 186.222 592.728 190.909 590.699 194.83C588.688 198.75 585.782 201.758 581.981 203.855C578.197 205.952 573.645 207 568.327 207ZM560.069 198.793H567.867C571.515 198.793 574.557 198.128 576.995 196.798C579.432 195.452 581.265 193.449 582.492 190.79C583.719 188.114 584.333 184.773 584.333 180.767C584.333 176.761 583.719 173.437 582.492 170.795C581.265 168.136 579.449 166.151 577.046 164.838C574.66 163.508 571.694 162.844 568.148 162.844H560.069V198.793Z" fill="black"></path> <defs> <filter id="filter0_d_3317_1038" x="225.004" y="74.288" width="250.529" height="272.798" filterUnits="userSpaceOnUse" color-interpolation-filters="sRGB"> <feFlood flood-opacity="0" result="BackgroundImageFix"></feFlood> <feColorMatrix in="SourceAlpha" type="matrix" values="0 0 0 0 0 0 0 0 0 0 0 0 0 0 0 0 0 0 127 0" result="hardAlpha"></feColorMatrix> <feOffset dy="6"></feOffset> <feGaussianBlur stdDeviation="6"></feGaussianBlur> <feComposite in2="hardAlpha" operator="out"></feComposite> <feColorMatrix type="matrix" values="0 0 0 0 0 0 0 0 0 0 0 0 0 0 0 0 0 0 0.25 0"></feColorMatrix> <feBlend mode="normal" in2="BackgroundImageFix" result="effect1_dropShadow_3317_1038"></feBlend> <feBlend mode="normal" in="SourceGraphic" in2="effect1_dropShadow_3317_1038" result="shape"></feBlend> </filter> </defs> </svg> 